<svg xmlns="http://www.w3.org/2000/svg" viewBox="496 182 446 446" width="446" height="446">
  <defs>
    <clipPath id="clip1">
      <path d="M 496.535156 182.046875 L 942 182.046875 L 942 627.546875 L 496.535156 627.546875 Z M 496.535156 182.046875 "/>
    </clipPath>
  </defs>
  <g clip-path="url(#clip1)">
    <!-- Fundo com gradiente sutil -->
    <rect x="496.535156" y="182.046875" width="445.464844" height="445.5" style="fill:url(#grad);fill-opacity:1;"/>
    <defs>
      <linearGradient id="grad" x1="0%" y1="0%" x2="100%" y2="100%">
        <stop offset="0%" style="stop-color:rgba(14, 165, 233, 0.2);stop-opacity:1" />
        <stop offset="100%" style="stop-color:rgba(6, 182, 212, 0.3);stop-opacity:1" />
      </linearGradient>
    </defs>
    <!-- DNA em branco -->
    <path style="stroke:none;fill-rule:nonzero;fill:#ffffff;fill-opacity:1;" d="M 650 420 C 652 425 654 426 656 426 C 658 426 659 424 659 423 C 657 420 653 421 650 422 M 600 339 C 600 337 597 335 596 334 C 594 333 593 332 591 331 C 589 331 586 332 584 334 C 581 336 580 339 585 340 C 589 341 594 341 598 340 C 600 340 600 339 600 339 M 570 594 C 573 594 576 593 580 592 C 577 589 575 587 573 584 C 568 580 563 587 561 590 C 564 593 567 594 570 594 M 570 544 C 567 544 565 544 562 545 C 559 546 562 550 563 551 C 566 556 571 556 575 552 C 576 551 580 547 578 546 C 575 545 572 544 570 544 M 589 294 C 587 294 584 294 582 294 C 580 294 579 295 578 296 C 578 297 579 299 580 300 C 586 307 594 306 600 298 C 601 296 600 294 598 294 C 595 294 592 294 589 294 M 579 610 C 587 610 595 610 602 608 C 607 607 602 604 600 603 C 596 601 591 602 587 602 L 577 602 C 570 602 563 602 557 604 C 554 604 553 606 556 607 C 559 609 563 609 566 609 C 570 610 575 610 579 610 M 621 522 C 623 519 617 519 616 519 C 604 519 592 520 580 519 C 576 519 572 518 568 519 C 561 520 555 524 554 530 C 553 531 553 532 553 533 C 555 536 558 536 561 536 L 571 536 C 578 536 585 536 592 536 C 597 536 601 534 605 532 L 614 527 C 616 525 620 524 621 522 M 599 364 L 607 364 C 611 364 616 364 620 364 C 624 364 629 365 633 364 C 634 363 634 363 635 362 C 635 360 633 359 631 358 C 629 356 626 354 623 352 C 620 351 616 350 612 350 C 607 349 602 349 597 349 C 592 349 587 349 583 349 C 577 349 570 349 566 353 C 564 354 563 356 562 358 C 562 362 564 364 567 364 C 572 365 578 365 583 364 L 599 364 M 606 398 C 605 399 605 400 606 400 L 607 401 C 610 403 614 405 617 408 C 624 412 632 412 640 412 L 666 412 C 670 412 674 412 677 411 C 680 410 687 405 686 401 C 684 396 677 397 673 397 L 622 397 C 619 397 616 397 613 397 C 611 397 608 396 606 398 M 645 485 L 650 485 C 655 485 660 485 664 485 C 669 485 673 485 678 484 C 681 484 687 481 685 477 C 682 473 679 470 676 469 C 674 468 671 468 668 468 C 663 468 658 468 654 468 C 647 468 641 468 634 468 C 628 469 622 471 617 474 C 615 476 606 482 612 484 C 617 486 623 485 628 485 L 645 485 M 668 386 C 668 385 668 385 668 384 L 665 382 C 663 379 659 376 655 375 C 651 374 646 374 641 374 L 626 374 C 610 374 595 374 579 374 C 576 374 574 376 576 379 C 578 382 582 384 585 386 C 590 387 594 387 598 387 L 630 387 C 640 387 650 387 659 387 C 661 387 668 388 668 386 M 610 229 C 610 230 610 230 610 231 C 611 232 611 232 612 232 C 617 233 622 232 626 232 L 642 232 C 657 232 672 232 687 232 C 689 232 691 231 691 229 C 691 228 691 228 690 227 C 687 223 683 220 679 218 C 670 213 657 215 647 215 C 642 215 637 215 632 216 C 624 218 617 223 611 228 M 605 268 L 601 268 C 592 268 583 268 575 268 C 569 269 562 270 562 277 C 562 282 565 285 572 285 L 616 284 C 624 284 631 280 638 276 C 639 275 643 273 643 271 C 643 268 639 268 637 268 L 627 268 C 620 268 612 268 605 268 M 628 494 L 604 494 C 599 494 594 494 589 496 C 584 498 579 501 577 506 C 577 507 577 508 578 508 L 579 508 C 585 510 590 509 596 509 L 613 509 C 623 509 633 510 643 508 C 651 507 658 504 664 498 C 668 494 655 494 654 494 L 628 494 M 640 242 L 621 242 C 616 242 611 242 606 242 C 602 242 599 242 596 243 C 592 244 588 245 585 248 C 584 249 576 256 578 258 L 579 258 C 589 260 599 260 609 260 L 648 259 C 656 259 662 259 669 256 C 675 253 681 250 685 245 C 685 245 685 244 685 244 C 686 239 667 241 665 241 L 640 242 M 514 404 L 514 490 C 514 527 514 564 514 601 C 514 607 515 609 521 609 L 532 609 C 547 609 547 609 547 594 C 547 590 546 585 547 581 C 550 573 554 568 551 558 C 546 540 540 515 555 499 C 557 496 560 492 564 490 C 584 472 606 457 630 444 C 634 442 634 439 631 436 C 629 435 628 435 627 434 C 611 423 594 413 579 402 C 556 384 544 342 569 321 C 573 317 573 316 569 312 C 553 294 549 258 565 240 C 571 233 578 226 585 221 L 597 212 C 600 209 605 207 608 203 C 609 202 609 202 609 201 C 609 199 605 199 603 199 C 601 199 599 199 596 199 L 581 199 C 571 199 560 199 550 199 L 529 199 C 513 199 514 199 514 214 L 514 404 M 925 404 L 925 319 C 925 282 925 246 925 209 C 925 200 924 199 916 199 L 705 199 C 702 199 699 199 695 199 C 692 199 691 201 693 204 C 694 206 696 208 698 209 C 705 217 705 226 705 236 C 706 250 700 259 690 267 C 677 279 661 286 645 294 C 634 300 623 307 612 313 C 607 316 607 320 612 322 L 620 327 C 638 339 657 351 675 363 C 691 374 698 388 696 409 C 695 420 691 429 682 437 C 677 441 677 442 682 446 C 692 454 698 463 696 477 C 696 478 696 479 696 480 C 698 491 693 499 686 506 C 675 517 662 523 649 530 C 629 540 610 553 591 564 C 585 568 585 571 592 575 C 608 585 624 594 640 604 C 645 608 650 609 656 609 L 913 609 C 925 609 925 609 925 597 L 925 591 C 925 529 925 467 925 404"/>
  </g>
</svg>

