<svg xmlns="http://www.w3.org/2000/svg" xmlns:xlink="http://www.w3.org/1999/xlink" width="200" height="200" viewBox="0 0 1440 809.999993" preserveAspectRatio="xMidYMid meet" version="1.2">
  <defs>
    <clipPath id="9e5e8f7b31">
      <path d="M 496.535156 182.046875 L 942 182.046875 L 942 627.546875 L 496.535156 627.546875 Z M 496.535156 182.046875 "/>
    </clipPath>
    <clipPath id="099fde2e3a">
      <path d="M 649.28125 423.144531 L 649.257812 423.863281 C 649.976562 425.445312 651.246094 426.292969 652.574219 426.683594 C 654.148438 427.140625 656.074219 427.246094 657.6875 426.863281 L 658.144531 426.742188 C 658.941406 426 659.71875 424.035156 659.136719 423.277344 C 657.109375 420.644531 652.753906 421.792969 650.074219 422.550781 L 649.609375 422.691406 L 649.308594 423.046875 M 600.679688 339 C 600.710938 337.605469 597.410156 335.625 596.332031 334.746094 C 594.921875 333.59375 593.457031 332.488281 591.679688 331.996094 C 588.929688 331.230469 585.929688 332.101562 583.859375 334.027344 C 581.179688 336.523438 580.484375 339.953125 584.816406 340.566406 C 589.402344 341.210938 594.089844 341.128906 598.640625 340.304688 C 600.109375 340.042969 600.664062 339.570312 600.679688 339.007812 M 570.125 594.421875 C 573.351562 594.503906 576.621094 593.789062 579.816406 592.515625 L 580.160156 592.371094 L 580.160156 591.75 C 577.949219 589.117188 575.503906 587.03125 573.101562 584.933594 C 568.394531 580.808594 563.054688 587.003906 561.003906 590.96875 L 560.855469 591.277344 L 561.117188 591.765625 C 563.96875 593.46875 567.027344 594.335938 570.140625 594.421875 M 570.289062 544.726562 C 567.644531 544.671875 564.988281 544.933594 562.394531 545.414062 C 558.800781 546.082031 562.183594 550.207031 563.285156 551.796875 C 566.652344 556.636719 571.851562 556.394531 575.742188 552.246094 C 576.742188 551.183594 580.925781 547.890625 578.894531 546.285156 L 578.113281 545.878906 C 575.269531 545.09375 572.789062 544.769531 570.289062 544.726562 M 589.535156 294.59375 L 589.535156 294.570312 C 587.066406 294.554688 584.585938 294.367188 582.148438 294.636719 C 580.902344 294.773438 579.09375 295.492188 578.734375 296.40625 C 578.382812 297.308594 579.269531 299.023438 580.070312 300.007812 C 585.980469 307.222656 594.371094 306.707031 600.003906 298.914062 C 601.957031 296.207031 600.574219 294.914062 597.988281 294.652344 C 595.199219 294.367188 592.363281 294.585938 589.542969 294.585938 M 579.183594 610.117188 C 587.105469 610.011719 595.117188 610.507812 602.886719 608.65625 C 607.371094 607.582031 602.636719 604.433594 600.507812 603.613281 C 596.136719 601.949219 591.53125 602.601562 586.976562 602.445312 L 576.859375 602.371094 C 570.230469 602.378906 563.554688 602.640625 557.066406 604.09375 C 554.300781 604.710938 552.941406 606.269531 556.128906 607.65625 C 559.453125 609.097656 563.082031 609.675781 566.675781 609.898438 C 570.839844 610.15625 575.007812 610.175781 579.183594 610.117188 M 621.949219 522.074219 C 623.789062 519.148438 617.058594 519.675781 615.957031 519.675781 C 604.191406 519.675781 592.191406 520.09375 580.355469 519.621094 C 576.335938 519.457031 572.308594 518.976562 568.289062 519.464844 C 561.90625 520.246094 555.90625 524.820312 553.859375 530.957031 C 553.558594 531.878906 553.496094 532.914062 553.902344 533.796875 C 555.082031 536.40625 558.597656 536.144531 560.945312 536.167969 L 571.78125 536.265625 C 578.796875 536.324219 585.816406 536.371094 592.828125 536.234375 C 597.53125 536.144531 601.535156 534.300781 605.652344 532.230469 L 614.195312 527.496094 C 616.8125 525.9375 620.015625 524.804688 621.84375 522.246094 L 621.921875 522.144531 M 599 364.914062 L 607.085938 364.90625 C 611.628906 364.90625 616.167969 364.914062 620.714844 364.921875 C 624.566406 364.925781 629.808594 365.863281 633.410156 364.175781 C 634.152344 363.832031 634.902344 363.285156 635.054688 362.484375 C 635.390625 360.667969 633.058594 359.46875 631.925781 358.546875 C 629.136719 356.273438 626.839844 354.238281 623.449219 352.832031 C 620.082031 351.425781 616.492188 350.582031 612.875 350.113281 C 607.820312 349.460938 602.714844 349.539062 597.628906 349.695312 C 592.8125 349.835938 587.878906 349.644531 583.03125 349.589844 C 577.339844 349.53125 570.734375 349.378906 566.1875 353.398438 C 564.53125 354.871094 563.433594 356.851562 562.917969 358.996094 L 562.851562 359.289062 C 562.136719 362.738281 564.523438 364.492188 567.53125 364.851562 C 572.886719 365.488281 578.269531 365.0625 583.640625 364.972656 L 599 364.921875 M 606.566406 398.355469 L 606.371094 398.585938 C 605.945312 399.316406 605.976562 400.109375 606.367188 400.671875 L 607.039062 401.332031 C 610.789062 403.792969 614.179688 405.9375 617.621094 408 C 624.566406 412.164062 632.816406 412.90625 640.738281 412.859375 L 666.808594 412.621094 C 670.234375 412.582031 674.007812 412.890625 677.292969 411.765625 C 680.824219 410.558594 687.371094 405.929688 686.128906 401.421875 C 684.800781 396.609375 676.96875 397.3125 673.265625 397.3125 L 622.199219 397.132812 C 619.183594 397.109375 616.167969 397.148438 613.160156 397.09375 C 611.03125 397.066406 608.195312 396.601562 606.558594 398.355469 M 645.546875 485.128906 L 649.917969 485.136719 C 654.785156 485.144531 659.652344 485.144531 664.519531 485.160156 C 669.082031 485.175781 673.699219 485.398438 678.207031 484.613281 C 681.402344 484.050781 687.457031 481.792969 685.550781 477.253906 L 685.078125 476.460938 C 682.582031 473.484375 679.78125 470.84375 676.511719 469.664062 C 674.105469 468.800781 671.53125 468.480469 668.976562 468.34375 C 663.957031 468.074219 658.949219 468.464844 653.9375 468.613281 C 647.472656 468.808594 640.992188 468.195312 634.527344 468.660156 C 628.332031 469.109375 622.640625 471.425781 617.488281 474.878906 C 615.464844 476.234375 606.433594 482.511719 612.386719 484.410156 C 617.421875 486.023438 623.015625 485.011719 628.199219 485.09375 L 645.546875 485.136719 M 668.683594 386.371094 C 668.773438 385.957031 668.546875 385.449219 668.121094 384.824219 L 665.824219 382.082031 C 663.003906 379.207031 659.578125 376.867188 655.753906 375.5625 C 651.328125 374.046875 646.503906 374.503906 641.90625 374.511719 L 626.34375 374.550781 C 610.730469 374.585938 595.078125 374.210938 579.46875 374.550781 C 576.425781 374.617188 574.429688 376.785156 576.476562 379.5 C 578.839844 382.636719 582.132812 384.839844 585.832031 386.109375 C 590.15625 387.59375 594.367188 387.511719 598.910156 387.585938 L 629.9375 387.90625 C 639.742188 387.953125 649.550781 387.9375 659.34375 387.96875 L 659.960938 387.96875 C 661.925781 387.96875 668.152344 388.867188 668.675781 386.378906 M 610.402344 229.664062 C 610.09375 230.296875 610.078125 230.984375 610.777344 231.59375 C 611.277344 232.027344 611.953125 232.199219 612.605469 232.328125 C 617.179688 233.242188 622.273438 232.589844 626.914062 232.558594 L 642.464844 232.449219 C 657.476562 232.335938 672.492188 232.230469 687.507812 232.125 C 689.058594 232.109375 691.550781 231.855469 691.761719 229.875 C 691.867188 228.871094 691.117188 228 690.417969 227.273438 C 687.132812 223.84375 683.644531 220.457031 679.445312 218.167969 C 669.949219 213 657.589844 215.414062 647.277344 215.550781 C 642.191406 215.617188 636.890625 215.25 631.902344 216.464844 C 624.28125 218.355469 617.269531 223.34375 611.414062 228.421875 L 610.394531 229.664062 M 605.390625 268.792969 L 601.296875 268.832031 C 592.550781 268.914062 583.699219 268.53125 574.976562 268.980469 C 569.339844 269.265625 562.101562 270.871094 562.207031 277.875 C 562.273438 282.554688 565.582031 285.007812 572.113281 285.023438 L 616.371094 284.933594 C 624.558594 284.828125 631.804688 280.636719 638.34375 276.097656 C 639.875 275.03125 642.90625 273.539062 643.054688 271.425781 C 643.257812 268.5 638.839844 268.644531 637.039062 268.597656 L 626.886719 268.605469 C 619.722656 268.703125 612.546875 268.746094 605.390625 268.808594 M 628.371094 494.394531 L 604.339844 494.289062 C 598.917969 494.25 593.871094 494.128906 588.800781 496.378906 C 584.714844 498.195312 579.191406 501.839844 577.679688 506.339844 C 577.4375 507.058594 577.484375 508.019531 578.144531 508.5 L 579.019531 508.898438 C 584.945312 510.039062 590.609375 509.617188 596.128906 509.574219 L 613.503906 509.46875 C 623.433594 509.476562 633.597656 510.5625 643.421875 508.769531 C 651.003906 507.390625 658.589844 504.628906 663.921875 498.808594 C 667.769531 494.617188 655.589844 494.394531 653.628906 494.398438 L 628.363281 494.394531 M 640.160156 242.03125 L 621.636719 242.113281 C 616.414062 242.109375 611.1875 242.0625 605.976562 242.226562 C 602.601562 242.332031 599.164062 242.25 595.859375 243.050781 C 591.949219 244.003906 588.230469 245.949219 585.179688 248.65625 C 583.933594 249.757812 575.886719 256.550781 578.441406 258.546875 L 579.050781 258.816406 C 589.167969 260.535156 599.171875 260.175781 609.050781 260.0625 L 648.6875 259.777344 C 656 259.695312 662.609375 259.027344 669.449219 256.3125 L 669.996094 256.09375 C 675.84375 253.71875 681.027344 250.351562 684.972656 245.769531 C 685.339844 245.339844 685.714844 244.867188 685.804688 244.3125 C 686.511719 239.910156 667.566406 241.6875 665.367188 241.726562 L 640.160156 242.03125 M 514.445312 404.386719 L 514.4375 490.117188 C 514.402344 527.394531 514.324219 564.667969 514.25 601.941406 C 514.234375 607.671875 515.714844 609.308594 521.359375 609.390625 L 532.027344 609.359375 C 546.929688 609.375 547.027344 609.382812 547.011719 594.503906 C 547.003906 590.210938 546.734375 585.707031 547.78125 581.519531 C 549.90625 573.105469 553.878906 568.132812 551.414062 558.960938 C 546.3125 540 540.367188 515.894531 554.960938 499.273438 C 557.765625 496.082031 560.734375 492.992188 563.914062 490.164062 C 584.058594 472.289062 606.457031 457.636719 629.992188 444.660156 C 634.070312 442.410156 634.445312 439.867188 630.867188 436.941406 C 629.644531 435.9375 628.128906 435.300781 626.804688 434.414062 C 610.699219 423.734375 593.902344 413.949219 578.714844 402.105469 C 556.136719 384.496094 544.503906 342.691406 568.859375 321.636719 C 573.214844 317.871094 573.148438 316.222656 569.359375 312.082031 C 553.496094 294.734375 549.3125 258.660156 565.289062 240.066406 C 571.324219 233.039062 578.292969 226.882812 585.582031 221.199219 L 596.707031 212.925781 C 600.84375 209.949219 605.308594 207.332031 608.5625 203.316406 C 608.953125 202.835938 609.335938 202.3125 609.378906 201.699219 C 609.558594 199.476562 605.03125 199.597656 603.644531 199.460938 C 601.316406 199.230469 598.96875 199.410156 596.636719 199.410156 L 581.066406 199.460938 C 570.6875 199.507812 560.308594 199.574219 549.921875 199.621094 L 529.054688 199.664062 C 512.90625 199.65625 514.339844 199.109375 514.371094 214.289062 L 514.421875 404.398438 M 924.808594 404.46875 L 924.808594 319.273438 C 924.824219 282.710938 924.769531 246.148438 924.921875 209.59375 C 924.957031 200.550781 924.433594 199.679688 915.644531 199.6875 L 705.515625 199.703125 C 702.140625 199.703125 698.75 199.273438 695.398438 199.523438 C 691.683594 199.792969 690.742188 201.945312 693.003906 204.945312 C 694.386719 206.769531 696.261719 208.214844 697.796875 209.925781 C 704.757812 217.648438 704.726562 226.933594 705.253906 236.753906 C 705.988281 250.433594 700.214844 259.582031 690.425781 267.824219 C 676.804688 279.292969 660.671875 286.34375 645.277344 294.734375 C 634.0625 300.847656 623.089844 307.402344 612.148438 313.988281 C 607.40625 316.84375 607.648438 320.019531 612.328125 322.71875 L 620.097656 327.359375 C 638.464844 339.425781 656.9375 351.335938 675.101562 363.707031 C 691.046875 374.558594 698.382812 388.972656 696.035156 409.140625 C 694.679688 420.824219 691.273438 429.824219 682.226562 437.046875 C 677.074219 441.15625 677.21875 442.671875 682.265625 446.976562 C 691.589844 454.925781 698.503906 463.933594 696.359375 477.203125 C 696.164062 478.410156 696.191406 479.707031 696.402344 480.921875 C 698.261719 491.722656 693.28125 499.644531 685.964844 506.84375 C 675.28125 517.359375 662.195312 523.726562 649.0625 530.585938 C 629.300781 540.90625 610.535156 553.148438 591.46875 564.773438 C 585.011719 568.710938 585.296875 571.074219 591.933594 575.160156 C 607.949219 585.023438 624.050781 594.757812 639.898438 604.875 C 644.929688 608.09375 650.007812 609.472656 655.925781 609.464844 L 912.988281 609.390625 C 924.996094 609.390625 924.996094 609.433594 924.824219 597.21875 L 924.808594 591.894531 C 924.808594 529.417969 924.808594 466.949219 924.808594 404.476562 M 496.671875 627.1875 L 496.769531 609.628906 C 496.769531 469.417969 496.761719 329.207031 496.753906 188.992188 C 496.753906 186.90625 496.753906 184.832031 496.753906 182.398438 L 941.066406 182.398438 C 941.34375 184.753906 941.871094 187.140625 941.871094 189.523438 L 941.886719 619.207031 C 941.886719 621.863281 941.660156 624.519531 941.539062 627.171875 Z M 496.671875 627.1875 "/>
    </clipPath>
    <clipPath id="2c30001211">
      <path d="M 496.535156 182.046875 L 942.035156 182.046875 L 942.035156 203.796875 L 496.535156 203.796875 Z M 920.285156 203.796875 L 942.035156 203.796875 L 942.035156 605.796875 L 920.285156 605.796875 Z M 496.535156 203.796875 L 518.285156 203.796875 L 518.285156 605.796875 L 496.535156 605.796875 Z M 496.535156 605.796875 L 942.035156 605.796875 L 942.035156 627.546875 L 496.535156 627.546875 Z M 496.535156 605.796875 "/>
    </clipPath>
  </defs>
  <g id="b1b8e22064">
    <g clip-rule="nonzero" clip-path="url(#9e5e8f7b31)">
      <g clip-rule="nonzero" clip-path="url(#099fde2e3a)">
        <path style="stroke:none;fill-rule:nonzero;fill:#ffffff;fill-opacity:1;" d="M 492.785156 178.296875 L 945.785156 178.296875 L 945.785156 631.296875 L 492.785156 631.296875 Z M 492.785156 178.296875 "/>
      </g>
    </g>
    <g clip-rule="nonzero" clip-path="url(#2c30001211)">
      <path style="stroke:none;fill-rule:nonzero;fill:#ffffff;fill-opacity:1;" d="M 492.785156 178.296875 L 945.785156 178.296875 L 945.785156 631.296875 L 492.785156 631.296875 Z M 492.785156 178.296875 "/>
    </g>
  </g>
</svg>
