<svg width="512" height="512" viewBox="0 0 512 512" fill="none" xmlns="http://www.w3.org/2000/svg">
  <rect width="512" height="512" rx="128" fill="#10b981"/>
  <path d="M256 128C194.144 128 144 178.144 144 240C144 301.856 194.144 352 256 352C317.856 352 368 301.856 368 240C368 178.144 317.856 128 256 128Z" fill="white"/>
  <circle cx="226" cy="220" r="16" fill="#10b981"/>
  <circle cx="286" cy="220" r="16" fill="#10b981"/>
  <path d="M226 270C226 270 240 290 256 290C272 290 286 270 286 270" stroke="#10b981" stroke-width="12" stroke-linecap="round"/>
  <path d="M180 160C170 140 185 120 205 115" stroke="white" stroke-width="8" stroke-linecap="round"/>
  <path d="M332 160C342 140 327 120 307 115" stroke="white" stroke-width="8" stroke-linecap="round"/>
  <circle cx="256" cy="390" r="20" fill="#10b981"/>
  <rect x="246" y="352" width="20" height="50" rx="10" fill="#10b981"/>
</svg>